<svg width="89" height="89" viewBox="0 0 89 89" fill="none" xmlns="http://www.w3.org/2000/svg">
<circle cx="44.5" cy="44.5" r="44.5" fill="white"/>
<path d="M44.1317 50.6088L44.4793 50.9579L44.8335 50.6155L54.5435 41.2285L54.9031 40.8809L54.5554 40.5214L53.1644 39.0834L52.8168 38.7241L52.4574 39.0716L44.5196 46.7471L36.8953 39.0912L36.5425 38.7369L36.1882 39.0897L34.7712 40.5007L34.4169 40.8535L34.7697 41.2078L44.1317 50.6088ZM16.5 44.5C16.5 29.0371 29.0362 16.5 44.5 16.5C59.9629 16.5 72.5 29.0371 72.5 44.5C72.5 59.9629 59.9629 72.5 44.5 72.5C29.0362 72.5 16.5 59.9629 16.5 44.5Z" fill="#2C53B0" stroke="#2C53B0"/>
</svg>
