<svg width="29" height="29" viewBox="0 0 29 29" fill="none" xmlns="http://www.w3.org/2000/svg">
<path d="M16.4526 15.4975L16.4448 15.5049C16.2505 15.6882 15.9966 15.7952 15.7298 15.806C15.4629 15.8168 15.2012 15.7308 14.9928 15.5637C14.105 14.864 13.1345 14.5142 12.0813 14.5141C10.9499 14.5141 9.99685 14.9009 9.2221 15.6744C8.44734 16.448 8.05994 17.4015 8.05989 18.5351C8.05989 19.3247 8.23145 20.0258 8.57458 20.6383C8.91388 21.2469 9.41862 21.7469 10.0304 22.0806C10.6704 22.433 11.391 22.6134 12.1216 22.6043C12.7388 22.612 13.3504 22.4869 13.9151 22.2377C14.2899 22.0602 14.641 21.8364 14.9602 21.5716C15.1747 21.401 15.4453 21.3168 15.7187 21.3356C15.9921 21.3544 16.2486 21.4748 16.4377 21.6732L16.4391 21.6746C16.5447 21.7844 16.6264 21.9149 16.6789 22.0579C16.7314 22.2009 16.7536 22.3533 16.744 22.5054C16.7344 22.6574 16.6934 22.8058 16.6234 22.9411C16.5534 23.0764 16.456 23.1957 16.3374 23.2914C15.7874 23.731 15.2581 24.0587 14.7494 24.2745C13.9712 24.6046 13.083 24.7696 12.0849 24.7697C10.2441 24.7697 8.73738 24.1861 7.56482 23.0189C6.39217 21.8516 5.80587 20.3557 5.80591 18.531C5.80591 17.3505 6.0729 16.3013 6.60687 15.3835C7.14081 14.4658 7.90555 13.7279 8.90111 13.1698C9.88192 12.6155 10.9905 12.3269 12.1171 12.3326C13.6709 12.3377 15.1767 12.8714 16.387 13.8458C16.5084 13.9444 16.6075 14.0677 16.6775 14.2075C16.7476 14.3474 16.787 14.5005 16.7932 14.6568C16.7994 14.8131 16.7723 14.9689 16.7135 15.1139C16.6548 15.2588 16.5658 15.3896 16.4526 15.4975V15.4975Z" fill="white"/>
<path d="M19.4346 15.7137C19.5583 15.7137 19.6808 15.7381 19.7951 15.7854C19.9093 15.8327 20.0132 15.9021 20.1006 15.9896C20.1881 16.077 20.2575 16.1808 20.3048 16.2951C20.3521 16.4094 20.3765 16.5319 20.3765 16.6555V16.8165C20.5804 16.3819 20.8514 16.0518 21.1895 15.8264C21.5172 15.6042 21.9045 15.4863 22.3004 15.4883C22.3033 15.4883 22.3061 15.4883 22.3089 15.4883C22.4185 15.4902 22.5259 15.5183 22.6224 15.5702C22.7188 15.6221 22.8015 15.6963 22.8634 15.7866C22.9253 15.877 22.9647 15.9808 22.9783 16.0895C22.9919 16.1982 22.9793 16.3086 22.9416 16.4114L22.7379 16.9746C22.6843 17.124 22.5806 17.2502 22.4445 17.3317C22.3084 17.4132 22.1482 17.445 21.9912 17.4217C21.9524 17.4156 21.9131 17.4124 21.8738 17.4122C21.5357 17.4122 21.2499 17.6215 21.0164 18.0401C20.783 18.4587 20.6663 19.2798 20.6663 20.5034L20.6743 20.9301V23.3813C20.6743 23.6706 20.5594 23.948 20.3548 24.1526C20.1503 24.3571 19.8728 24.472 19.5836 24.472C19.2943 24.472 19.0168 24.3571 18.8123 24.1526C18.6077 23.948 18.4928 23.6706 18.4928 23.3813V16.6555C18.4928 16.4058 18.592 16.1662 18.7687 15.9896C18.9453 15.8129 19.1848 15.7137 19.4346 15.7137Z" fill="white"/>
<path d="M17.6198 4.77124C17.7936 4.77124 17.9602 4.84025 18.083 4.96308C18.2058 5.08591 18.2748 5.25251 18.2748 5.42623V8.17749H18.2802C18.4038 8.17749 18.5223 8.22656 18.6096 8.31392C18.697 8.40127 18.746 8.51975 18.746 8.64328C18.746 8.76682 18.697 8.8853 18.6096 8.97265C18.5223 9.06 18.4038 9.10908 18.2802 9.10908H18.2748V9.70259C18.2748 9.83329 18.2229 9.95862 18.1305 10.051C18.0381 10.1435 17.9128 10.1954 17.7821 10.1954C17.6514 10.1954 17.526 10.1435 17.4336 10.051C17.3412 9.95862 17.2893 9.83329 17.2893 9.70259V9.27803C17.2893 9.23323 17.2715 9.19026 17.2398 9.15858C17.2081 9.1269 17.1652 9.10911 17.1204 9.10911H15.694C15.5046 9.10911 15.3231 9.0339 15.1892 8.90002C15.0553 8.76615 14.9801 8.58457 14.9801 8.39524C14.9801 8.25332 15.0224 8.11462 15.1016 7.99685L17.0763 5.0607C17.1363 4.97159 17.2172 4.89859 17.312 4.84812C17.4067 4.79764 17.5125 4.77124 17.6198 4.77124ZM17.2893 8.08254V6.71216C17.2893 6.69186 17.2828 6.6721 17.2707 6.65576C17.2587 6.63943 17.2417 6.62739 17.2223 6.62141C17.2029 6.61543 17.1821 6.61582 17.163 6.62253C17.1438 6.62923 17.1273 6.6419 17.1159 6.65868L16.1819 8.02906C16.1722 8.04333 16.1665 8.05998 16.1655 8.07722C16.1646 8.09446 16.1683 8.11164 16.1764 8.12691C16.1845 8.14218 16.1966 8.15495 16.2113 8.16386C16.2261 8.17278 16.2431 8.17749 16.2603 8.17749H17.1943C17.2068 8.17749 17.2191 8.17504 17.2307 8.17027C17.2422 8.1655 17.2527 8.15851 17.2615 8.14969C17.2703 8.14087 17.2773 8.1304 17.2821 8.11888C17.2868 8.10736 17.2893 8.09501 17.2893 8.08254V8.08254Z" fill="white"/>
<path d="M10.9881 6.58782C10.9095 6.5878 10.832 6.56923 10.7619 6.53364C10.6918 6.49804 10.6312 6.44642 10.5848 6.38296C10.5384 6.3195 10.5076 6.246 10.495 6.16842C10.4824 6.09085 10.4882 6.01138 10.512 5.93649C10.5967 5.66109 10.748 5.41079 10.9524 5.20774C11.2926 4.87239 11.7293 4.70472 12.2624 4.70472C12.566 4.69852 12.866 4.7702 13.134 4.91293C13.3873 5.0532 13.5965 5.26118 13.7383 5.51361C13.8836 5.7546 13.9619 6.03005 13.965 6.31144C13.965 6.63332 13.8734 6.97972 13.6903 7.35064C13.5072 7.72164 13.1723 8.16017 12.6856 8.66624L12.2216 9.15527C12.2095 9.16805 12.2014 9.18412 12.1983 9.20147C12.1952 9.21882 12.1973 9.2367 12.2042 9.2529C12.2112 9.26909 12.2227 9.28289 12.2374 9.29259C12.2522 9.30228 12.2694 9.30745 12.287 9.30745H13.532C13.6586 9.30745 13.7799 9.35773 13.8694 9.44722C13.9589 9.53672 14.0092 9.65811 14.0092 9.78467C14.0092 9.91124 13.9589 10.0326 13.8694 10.1221C13.7799 10.2116 13.6586 10.2619 13.532 10.2619H10.6046C10.5116 10.2619 10.4225 10.225 10.3567 10.1592C10.291 10.0935 10.254 10.0043 10.254 9.91129C10.254 9.8195 10.29 9.73137 10.3543 9.66582L11.9307 8.05818C12.3361 7.64792 12.6057 7.31811 12.7396 7.06872C12.8735 6.8194 12.9404 6.594 12.9405 6.3925C12.9434 6.2965 12.9264 6.20093 12.8906 6.11182C12.8547 6.0227 12.8008 5.94198 12.7323 5.87474C12.6672 5.8103 12.5898 5.75956 12.5048 5.72552C12.3252 5.65545 12.1262 5.65381 11.9456 5.7209C11.7649 5.78799 11.6152 5.91914 11.5249 6.0894C11.5009 6.13597 11.4809 6.18445 11.465 6.23434C11.4333 6.33624 11.37 6.42541 11.2843 6.48895C11.1985 6.5525 11.0948 6.58712 10.9881 6.58782V6.58782Z" fill="white"/>
<path d="M25.1874 0.623047H3.81259C3.39374 0.623046 2.97898 0.705546 2.59201 0.865835C2.20503 1.02612 1.85342 1.26106 1.55724 1.55724C1.26107 1.85342 1.02613 2.20503 0.865837 2.592C0.705547 2.97898 0.623047 3.39373 0.623047 3.81259V25.1874C0.623048 26.0333 0.95909 26.8446 1.55725 27.4428C2.1554 28.0409 2.96667 28.377 3.81259 28.377H25.1874C26.0333 28.377 26.8446 28.0409 27.4428 27.4428C28.0409 26.8446 28.377 26.0333 28.377 25.1874V3.81259C28.377 3.39373 28.2945 2.97898 28.1342 2.592C27.9739 2.20503 27.7389 1.85342 27.4428 1.55724C27.1466 1.26106 26.795 1.02612 26.408 0.865835C26.021 0.705546 25.6063 0.623046 25.1874 0.623047V0.623047ZM26.3084 24.0536C26.3084 24.6516 26.0709 25.2251 25.648 25.648C25.2251 26.0709 24.6516 26.3084 24.0536 26.3084H4.94646C4.34843 26.3084 3.7749 26.0709 3.35203 25.648C2.92916 25.2251 2.6916 24.6516 2.6916 24.0536V4.94646C2.6916 4.34843 2.92916 3.7749 3.35203 3.35203C3.7749 2.92916 4.34843 2.6916 4.94646 2.6916H24.0536C24.6516 2.6916 25.2251 2.92916 25.648 3.35203C26.0709 3.7749 26.3084 4.34843 26.3084 4.94646V24.0536Z" fill="white"/>
</svg>
