<svg width="29" height="29" viewBox="0 0 29 29" fill="none" xmlns="http://www.w3.org/2000/svg">
<g clip-path="url(#clip0_172_68)">
<path d="M14.7019 15.4977L14.6941 15.5052C14.4999 15.6885 14.2459 15.7954 13.9791 15.8062C13.7122 15.817 13.4505 15.731 13.2421 15.564C12.3543 14.8643 11.3838 14.5144 10.3306 14.5144C9.19922 14.5144 8.24614 14.9011 7.47135 15.6747C6.69657 16.4482 6.30918 17.4018 6.30917 18.5353C6.30917 19.325 6.48073 20.026 6.82385 20.6385C7.16316 21.2471 7.6679 21.7472 8.27963 22.0808C8.91972 22.4332 9.64024 22.6137 10.3709 22.6046C10.9881 22.6122 11.5997 22.4872 12.1644 22.2379C12.5389 22.0606 12.8898 21.837 13.2088 21.5725C13.4235 21.4017 13.6943 21.3174 13.968 21.3362C14.2416 21.355 14.4983 21.4756 14.6876 21.6741C14.7934 21.7839 14.8751 21.9146 14.9277 22.0577C14.9802 22.2009 15.0024 22.3534 14.9928 22.5056C14.9833 22.6577 14.9422 22.8063 14.8721 22.9417C14.802 23.0771 14.7046 23.1965 14.5859 23.2923C14.0362 23.7316 13.5071 24.0591 12.9987 24.2748C12.2205 24.6048 11.3323 24.7699 10.3341 24.77C8.49332 24.77 6.98664 24.1864 5.81411 23.0191C4.64144 21.8519 4.05513 20.3559 4.05518 18.5313C4.05518 17.3507 4.32217 16.3015 4.85615 15.3838C5.39008 14.4661 6.15482 13.7282 7.15038 13.17C8.13119 12.6157 9.23975 12.3272 10.3663 12.3328C11.9201 12.338 13.426 12.8716 14.6363 13.8461C14.7577 13.9446 14.8568 14.0679 14.9268 14.2078C14.9969 14.3476 15.0363 14.5008 15.0425 14.6571C15.0487 14.8134 15.0216 14.9692 14.9628 15.1141C14.9041 15.2591 14.8151 15.3899 14.7019 15.4977V15.4977Z" fill="white"/>
<path d="M18.3478 15.7139H18.372C18.6634 15.7139 18.9429 15.8297 19.1489 16.0357C19.355 16.2418 19.4708 16.5213 19.4708 16.8127V19.9321C19.4708 20.7532 19.5273 21.3234 19.6402 21.6427C19.7386 21.9422 19.9293 22.2029 20.185 22.3873C20.435 22.5644 20.743 22.6529 21.1089 22.6529C21.4747 22.6529 21.7854 22.5657 22.041 22.3913C22.2966 22.217 22.4862 21.9607 22.6099 21.6225C22.7013 21.3704 22.7471 20.831 22.7471 20.0045V16.8127C22.7471 16.5213 22.8629 16.2418 23.0689 16.0357C23.275 15.8296 23.5545 15.7139 23.8459 15.7139C24.1374 15.7139 24.4169 15.8296 24.6229 16.0357C24.829 16.2418 24.9448 16.5213 24.9448 16.8127V19.4249C24.9448 20.9544 24.824 22.0009 24.5825 22.5644C24.2873 23.2514 23.8526 23.7787 23.2784 24.1462C22.7041 24.5137 21.9742 24.6975 21.0888 24.6976C20.1281 24.6976 19.3513 24.4829 18.7584 24.0536C18.1653 23.6243 17.748 23.0259 17.5066 22.2585C17.3348 21.7272 17.2489 20.7612 17.249 19.3605V16.8127C17.249 16.5213 17.3648 16.2418 17.5708 16.0357C17.7769 15.8297 18.0564 15.7139 18.3478 15.7139V15.7139Z" fill="white"/>
<path d="M16.4321 10.2104C16.3738 10.1815 16.3219 10.1413 16.2793 10.0921C16.2367 10.0429 16.2043 9.98572 16.184 9.9239C16.1637 9.86208 16.1559 9.79684 16.161 9.73198C16.1661 9.66711 16.1841 9.60391 16.2139 9.54605L16.7691 8.46705C16.7873 8.43233 16.7971 8.39389 16.7979 8.35473C16.7987 8.31558 16.7904 8.27677 16.7737 8.24134C16.757 8.20592 16.7324 8.17483 16.7017 8.15051C16.671 8.12619 16.6351 8.10929 16.5968 8.10115C16.2771 8.03646 15.9852 7.87486 15.7607 7.63834C15.4366 7.30787 15.2746 6.89721 15.2746 6.40638C15.2758 6.06766 15.3778 5.73695 15.5674 5.45629C15.757 5.17563 16.0259 4.9577 16.3397 4.8302C16.6535 4.7027 16.9981 4.6714 17.3298 4.74026C17.6614 4.80912 17.9651 4.97504 18.2022 5.21693C18.5293 5.55842 18.6929 5.95113 18.6929 6.39505C18.6924 6.56614 18.6668 6.73623 18.617 6.8999C18.5221 7.16988 18.4051 7.43154 18.2671 7.68221L17.0878 9.99383C17.0291 10.109 16.9273 10.1964 16.8045 10.2369C16.6817 10.2775 16.5479 10.268 16.4321 10.2104ZM16.9967 7.15258C17.088 7.15429 17.1785 7.13637 17.2622 7.10003C17.3459 7.0637 17.4208 7.00981 17.4819 6.942C17.61 6.79604 17.6799 6.60802 17.6781 6.41383C17.6764 6.21963 17.6033 6.03287 17.4726 5.88919C17.4122 5.82181 17.3383 5.76791 17.2556 5.73099C17.173 5.69407 17.0835 5.67496 16.993 5.6749C16.9001 5.67391 16.808 5.69229 16.7225 5.72887C16.6371 5.76544 16.5602 5.81941 16.4968 5.88734C16.3644 6.03072 16.2904 6.21843 16.2894 6.41358C16.2884 6.60873 16.3604 6.79721 16.4912 6.94198C16.5559 7.01065 16.6344 7.0649 16.7215 7.10119C16.8086 7.13748 16.9024 7.15499 16.9967 7.15258V7.15258Z" fill="white"/>
<path d="M11.041 6.58782C10.9624 6.5878 10.885 6.56923 10.8149 6.53364C10.7448 6.49804 10.6841 6.44642 10.6377 6.38296C10.5913 6.3195 10.5606 6.246 10.548 6.16842C10.5353 6.09085 10.5412 6.01138 10.565 5.93649C10.6497 5.66109 10.8009 5.41079 11.0053 5.20774C11.3455 4.87239 11.7822 4.70472 12.3154 4.70472C12.6189 4.69852 12.919 4.7702 13.1869 4.91293C13.4402 5.0532 13.6495 5.26118 13.7913 5.51361C13.9366 5.7546 14.0148 6.03005 14.0179 6.31144C14.0179 6.63332 13.9263 6.97972 13.7432 7.35064C13.5601 7.72164 13.2252 8.16017 12.7385 8.66623L12.2746 9.15527C12.2624 9.16805 12.2543 9.18412 12.2512 9.20147C12.2481 9.21882 12.2502 9.2367 12.2572 9.2529C12.2641 9.26909 12.2757 9.28289 12.2904 9.29259C12.3051 9.30228 12.3224 9.30745 12.34 9.30745H13.5849C13.7115 9.30745 13.8329 9.35773 13.9224 9.44722C14.0119 9.53672 14.0622 9.6581 14.0622 9.78467C14.0622 9.91124 14.0119 10.0326 13.9224 10.1221C13.8329 10.2116 13.7115 10.2619 13.5849 10.2619H10.6576C10.5646 10.2619 10.4754 10.225 10.4097 10.1592C10.3439 10.0935 10.307 10.0043 10.307 9.91129C10.307 9.8195 10.343 9.73137 10.4072 9.66582L11.9837 8.05818C12.3891 7.64792 12.6587 7.31811 12.7926 7.06872C12.9265 6.8194 12.9934 6.594 12.9934 6.3925C12.9964 6.2965 12.9794 6.20093 12.9435 6.11182C12.9077 6.0227 12.8538 5.94198 12.7852 5.87474C12.7201 5.8103 12.6428 5.75956 12.5577 5.72552C12.3782 5.65545 12.1792 5.65381 11.9985 5.7209C11.8178 5.78799 11.6681 5.91914 11.5778 6.0894C11.5539 6.13597 11.5338 6.18445 11.5179 6.23434C11.4862 6.33624 11.4229 6.42541 11.3372 6.48895C11.2515 6.5525 11.1478 6.58712 11.041 6.58782V6.58782Z" fill="white"/>
<path d="M25.1874 0.623047H3.81256C3.39371 0.623046 2.97895 0.705546 2.59198 0.865835C2.205 1.02612 1.85339 1.26106 1.55721 1.55724C1.26104 1.85342 1.0261 2.20503 0.865806 2.592C0.705516 2.97898 0.623016 3.39373 0.623016 3.81259V25.1874C0.623018 26.0333 0.959059 26.8446 1.55722 27.4428C2.15537 28.0409 2.96664 28.377 3.81256 28.377H25.1874C26.0333 28.377 26.8446 28.0409 27.4427 27.4428C28.0409 26.8446 28.3769 26.0333 28.3769 25.1874V3.81259C28.3769 3.39373 28.2944 2.97898 28.1341 2.592C27.9738 2.20503 27.7389 1.85342 27.4427 1.55724C27.1465 1.26106 26.7949 1.02612 26.408 0.865835C26.021 0.705546 25.6062 0.623046 25.1874 0.623047V0.623047ZM26.3084 24.0536C26.3084 24.6516 26.0708 25.2251 25.648 25.648C25.2251 26.0709 24.6516 26.3084 24.0535 26.3084H4.94643C4.3484 26.3084 3.77487 26.0709 3.352 25.648C2.92913 25.2251 2.69157 24.6516 2.69157 24.0536V4.94646C2.69157 4.34843 2.92913 3.7749 3.352 3.35203C3.77487 2.92916 4.3484 2.6916 4.94643 2.6916H24.0535C24.6516 2.6916 25.2251 2.92916 25.648 3.35203C26.0708 3.7749 26.3084 4.34843 26.3084 4.94646V24.0536Z" fill="white"/>
</g>
<defs>
<clipPath id="clip0_172_68">
<rect width="29" height="29" fill="white"/>
</clipPath>
</defs>
</svg>
