<svg width="29" height="29" viewBox="0 0 29 29" fill="none" xmlns="http://www.w3.org/2000/svg">
<path d="M11.449 4.7854H12.2877C12.403 4.7854 12.5136 4.8312 12.5951 4.91274C12.6766 4.99427 12.7224 5.10485 12.7224 5.22015V9.69399C12.7224 9.82984 12.6685 9.96013 12.5724 10.0562C12.4763 10.1523 12.346 10.2062 12.2102 10.2062C12.0743 10.2062 11.944 10.1523 11.848 10.0562C11.7519 9.96013 11.698 9.82984 11.698 9.69399V5.97946C11.698 5.91983 11.6743 5.86263 11.6321 5.82046C11.5899 5.77829 11.5327 5.7546 11.4731 5.7546H11.449C11.3628 5.7546 11.2781 5.73159 11.2037 5.68794C11.1294 5.64429 11.068 5.58159 11.0259 5.5063C10.9839 5.43101 10.9627 5.34587 10.9645 5.25965C10.9664 5.17344 10.9912 5.08928 11.0364 5.01585C11.0798 4.94542 11.1405 4.88726 11.2127 4.84692C11.2849 4.80658 11.3663 4.7854 11.449 4.7854V4.7854Z" fill="white"/>
<path d="M15.9526 4.7854H17.4854C17.612 4.7854 17.7334 4.83568 17.8229 4.92518C17.9124 5.01467 17.9627 5.13606 17.9627 5.26263C17.9627 5.38919 17.9124 5.51058 17.8229 5.60008C17.7334 5.68957 17.612 5.73985 17.4854 5.73985H16.5068C16.4179 5.73985 16.3318 5.77009 16.2624 5.82559C16.193 5.8811 16.1446 5.95855 16.1252 6.04522L16.0139 6.54032C16.0097 6.55958 16.0103 6.57957 16.0156 6.59856C16.0209 6.61754 16.0307 6.63494 16.0443 6.64924C16.0579 6.66354 16.0747 6.6743 16.0934 6.68059C16.1121 6.68688 16.132 6.6885 16.1515 6.68532L16.1533 6.68506C16.2094 6.67667 16.266 6.67236 16.3228 6.67216C16.8141 6.67216 17.2226 6.83984 17.5481 7.17518C17.8736 7.51053 18.0364 7.93985 18.0364 8.46314C18.0419 8.71081 17.9969 8.957 17.904 9.18669C17.8112 9.41637 17.6725 9.62472 17.4965 9.799C17.3265 9.97492 17.1222 10.114 16.8962 10.2075C16.6702 10.301 16.4273 10.347 16.1827 10.3426C15.7523 10.3531 15.3315 10.2137 14.9924 9.94824C14.907 9.88071 14.8281 9.80538 14.7566 9.72322C14.6914 9.64887 14.6489 9.55729 14.6344 9.45945C14.6198 9.3616 14.6337 9.26163 14.6744 9.17148C14.7151 9.08132 14.781 9.00481 14.864 8.95108C14.9471 8.89736 15.0439 8.86869 15.1428 8.86852C15.22 8.86837 15.2963 8.88573 15.3658 8.9193C15.4354 8.95286 15.4964 9.00175 15.5443 9.0623C15.6028 9.13739 15.6735 9.20207 15.7534 9.25361C15.8879 9.3403 16.0448 9.38577 16.2048 9.38445C16.3138 9.38618 16.4218 9.36511 16.5221 9.32258C16.6224 9.28006 16.7126 9.21703 16.7871 9.13755C16.9386 8.96524 17.0235 8.74447 17.0266 8.51506C17.0296 8.28565 16.9506 8.0627 16.8037 7.88644C16.7364 7.80969 16.6533 7.74839 16.5602 7.70673C16.467 7.66507 16.3659 7.64403 16.2638 7.64507C16.1474 7.6459 16.033 7.67499 15.9303 7.72982C15.8801 7.75604 15.8322 7.78646 15.7872 7.82077C15.7215 7.87005 15.6458 7.90446 15.5655 7.92162C15.4852 7.93878 15.4021 7.93828 15.322 7.92015C15.1747 7.88721 15.0464 7.79729 14.9652 7.67006C14.884 7.54283 14.8564 7.38863 14.8886 7.24115L15.311 5.30226C15.3429 5.15582 15.4239 5.02471 15.5407 4.93069C15.6574 4.83667 15.8027 4.7854 15.9526 4.7854V4.7854Z" fill="white"/>
<path d="M10.9141 13.5873C10.9141 13.3031 11.0269 13.0306 11.2279 12.8297C11.4288 12.6288 11.7013 12.5159 11.9855 12.5159H13.3513C14.6696 12.5159 15.6201 12.6376 16.2029 12.881C16.777 13.1172 17.2603 13.5314 17.5815 14.0627C17.918 14.6072 18.0862 15.2595 18.0862 16.0199C18.0862 16.8624 17.866 17.5626 17.4256 18.1206C16.9852 18.6786 16.3875 19.067 15.6326 19.2859C15.2579 19.3924 14.6231 19.4538 13.7282 19.4701C13.5905 19.4725 13.4593 19.5289 13.3627 19.627C13.2661 19.7252 13.2119 19.8574 13.2118 19.9951V23.4381C13.2118 23.7428 13.0907 24.0351 12.8753 24.2505C12.6598 24.466 12.3676 24.587 12.0629 24.587C11.7582 24.587 11.466 24.466 11.2506 24.2505C11.0351 24.0351 10.9141 23.7428 10.9141 23.4381L10.9141 13.5873ZM13.2118 16.5861C13.2118 16.6712 13.2285 16.7555 13.2611 16.8342C13.2937 16.9128 13.3414 16.9843 13.4016 17.0445C13.4618 17.1047 13.5333 17.1524 13.612 17.185C13.6906 17.2176 13.7749 17.2344 13.86 17.2344H13.9421C14.5165 17.2344 14.9159 17.1932 15.1402 17.1109C15.3558 17.0353 15.5413 16.8924 15.6695 16.7034C15.8023 16.4992 15.8696 16.2593 15.8623 16.0159C15.8623 15.5493 15.6818 15.2089 15.3207 14.9949C15.0581 14.8358 14.5712 14.7562 13.86 14.7561C13.6881 14.7561 13.5232 14.8244 13.4016 14.946C13.2801 15.0676 13.2118 15.2325 13.2118 15.4044V16.5861Z" fill="white"/>
<path d="M25.1874 0.623047H3.81259C3.39374 0.623046 2.97898 0.705546 2.59201 0.865835C2.20503 1.02612 1.85342 1.26106 1.55724 1.55724C1.26107 1.85342 1.02613 2.20503 0.865837 2.592C0.705547 2.97898 0.623047 3.39373 0.623047 3.81259V25.1874C0.623048 26.0333 0.95909 26.8446 1.55725 27.4428C2.1554 28.0409 2.96667 28.377 3.81259 28.377H25.1874C26.0333 28.377 26.8446 28.0409 27.4428 27.4428C28.0409 26.8446 28.377 26.0333 28.377 25.1874V3.81259C28.377 3.39373 28.2945 2.97898 28.1342 2.592C27.9739 2.20503 27.7389 1.85342 27.4428 1.55724C27.1466 1.26106 26.795 1.02612 26.408 0.865835C26.021 0.705546 25.6063 0.623046 25.1874 0.623047ZM26.3084 24.0536C26.3084 24.6516 26.0709 25.2251 25.648 25.648C25.2251 26.0709 24.6516 26.3084 24.0536 26.3084H4.94646C4.34843 26.3084 3.7749 26.0709 3.35203 25.648C2.92916 25.2251 2.6916 24.6516 2.6916 24.0536V4.94646C2.6916 4.34843 2.92916 3.7749 3.35203 3.35203C3.7749 2.92916 4.34843 2.6916 4.94646 2.6916H24.0536C24.6516 2.6916 25.2251 2.92916 25.648 3.35203C26.0709 3.7749 26.3084 4.34843 26.3084 4.94646V24.0536Z" fill="white"/>
</svg>
