<svg width="18" height="18" viewBox="0 0 18 18" fill="none" xmlns="http://www.w3.org/2000/svg">
<path d="M5.75835 8.10059C5.89268 8.10059 6.02489 8.13414 6.14296 8.1982C6.26103 8.26227 6.36122 8.35481 6.43445 8.46743L8.87529 12.2213C8.89037 12.2445 8.91253 12.2622 8.93848 12.2718C8.96443 12.2813 8.99278 12.2822 9.01929 12.2744C9.0458 12.2665 9.06906 12.2503 9.08561 12.2281C9.10215 12.206 9.11109 12.1791 9.11109 12.1514V8.749C9.11109 8.66385 9.12786 8.57953 9.16045 8.50086C9.19304 8.42219 9.2408 8.35071 9.30102 8.2905C9.36123 8.23029 9.43271 8.18252 9.51138 8.14994C9.59005 8.11735 9.67437 8.10058 9.75953 8.10059C9.9315 8.10059 10.0964 8.1689 10.218 8.29051C10.3396 8.41211 10.408 8.57704 10.408 8.74901V14.1046C10.408 14.3192 10.3227 14.525 10.171 14.6767C10.0193 14.8284 9.81348 14.9137 9.59891 14.9137C9.46426 14.9137 9.33175 14.8801 9.21337 14.8159C9.095 14.7517 8.99451 14.6591 8.92102 14.5462L6.48449 10.806C6.4694 10.7829 6.44723 10.7652 6.42128 10.7557C6.39534 10.7461 6.367 10.7452 6.3405 10.7531C6.314 10.761 6.29075 10.7772 6.27422 10.7993C6.25769 10.8215 6.24876 10.8484 6.24875 10.876V14.2652C6.24875 14.4372 6.18044 14.6021 6.05884 14.7238C5.93723 14.8454 5.7723 14.9137 5.60033 14.9137C5.42836 14.9137 5.26343 14.8454 5.14182 14.7238C5.02022 14.6021 4.9519 14.4372 4.9519 14.2652V8.90702C4.95191 8.69314 5.03687 8.48802 5.18811 8.33678C5.33935 8.18555 5.54447 8.10059 5.75835 8.10059V8.10059Z" fill="white"/>
<path d="M12.3184 7.79966C12.425 7.79835 12.5306 7.81907 12.6288 7.86052C12.7269 7.90196 12.8154 7.96324 12.8888 8.04051C12.9659 8.11661 13.0267 8.20757 13.0676 8.30789C13.1085 8.4082 13.1286 8.51578 13.1267 8.62409C13.1285 8.73115 13.1086 8.83746 13.0681 8.93659C13.0276 9.03571 12.9674 9.12557 12.8911 9.20072C12.8187 9.27716 12.7313 9.33781 12.6343 9.37885C12.5374 9.4199 12.433 9.44046 12.3277 9.43925C12.2202 9.44082 12.1136 9.42001 12.0146 9.37815C11.9156 9.33629 11.8264 9.27429 11.7527 9.19609C11.6326 9.07649 11.5535 8.92199 11.5266 8.75471C11.5026 8.60939 11.5173 8.4603 11.5695 8.32254C11.6216 8.18477 11.7092 8.06322 11.8234 7.97019C11.9633 7.85709 12.1385 7.79674 12.3184 7.79966V7.79966ZM12.3184 9.87462C12.4861 9.87462 12.6469 9.94123 12.7655 10.0598C12.884 10.1784 12.9507 10.3392 12.9507 10.5068V14.2816C12.9507 14.4493 12.884 14.6101 12.7655 14.7286C12.6469 14.8472 12.4861 14.9138 12.3184 14.9138C12.1508 14.9138 11.99 14.8472 11.8714 14.7286C11.7528 14.6101 11.6862 14.4493 11.6862 14.2816V10.5068C11.6862 10.3392 11.7528 10.1784 11.8714 10.0598C11.99 9.94123 12.1508 9.87462 12.3184 9.87462H12.3184Z" fill="white"/>
<path d="M11.0262 4.8979C11.159 4.98151 11.2681 5.09765 11.3434 5.2353C11.4186 5.37295 11.4575 5.52754 11.4562 5.68441C11.4574 5.85456 11.4122 6.0218 11.3256 6.16826C11.2437 6.31152 11.1218 6.42779 10.9748 6.50282C10.828 6.57757 10.6408 6.61497 10.4131 6.61501C10.1689 6.61501 9.97486 6.57898 9.83085 6.50694C9.68601 6.4341 9.5658 6.32025 9.4852 6.17957C9.39772 6.0294 9.3529 5.85819 9.35558 5.68441C9.35372 5.53291 9.38942 5.3833 9.45948 5.24895C9.53566 5.10998 9.6422 4.98998 9.77119 4.8979C9.68577 4.81345 9.6164 4.71419 9.56647 4.60494C9.52056 4.50176 9.49707 4.39 9.49755 4.27706C9.49586 4.12581 9.53533 3.97695 9.61173 3.8464C9.68744 3.71728 9.79844 3.61244 9.93167 3.54421C10.0789 3.4699 10.2421 3.43283 10.4069 3.43625C10.5693 3.43279 10.7299 3.47027 10.874 3.54522C11.0069 3.61642 11.1171 3.72365 11.1919 3.8546C11.2685 3.98515 11.3087 4.13391 11.3081 4.28529C11.3091 4.38881 11.2884 4.49139 11.2474 4.58645C11.1912 4.70164 11.1164 4.80684 11.0262 4.8979V4.8979ZM10.4111 5.20566C10.2826 5.20196 10.1576 5.24719 10.0613 5.33219C10.0169 5.36887 9.98112 5.41491 9.95658 5.46702C9.93204 5.51912 9.91932 5.57601 9.91932 5.63361C9.91836 5.69175 9.92979 5.74944 9.95285 5.80283C9.97591 5.85622 10.0101 5.90409 10.0531 5.94325C10.1422 6.02761 10.2595 6.06978 10.4049 6.06979C10.5516 6.06979 10.6686 6.03035 10.7557 5.95148C10.7984 5.91318 10.8323 5.86598 10.8548 5.8132C10.8774 5.76042 10.8882 5.70333 10.8863 5.64596C10.8875 5.58699 10.876 5.52845 10.8525 5.47431C10.8291 5.42018 10.7943 5.37171 10.7505 5.3322C10.6583 5.24718 10.5364 5.20174 10.4111 5.20566V5.20566ZM10.3884 3.99177C10.3452 3.99034 10.3021 3.99789 10.2619 4.01395C10.2217 4.03002 10.1853 4.05424 10.1549 4.08509C10.1244 4.11672 10.1005 4.15418 10.0848 4.19524C10.069 4.2363 10.0617 4.2801 10.0633 4.32404C10.0622 4.36915 10.0701 4.41404 10.0867 4.45599C10.1034 4.49794 10.1283 4.5361 10.16 4.56817C10.2237 4.6309 10.3094 4.66623 10.3988 4.66661C10.4882 4.66699 10.5742 4.63238 10.6384 4.57019C10.6699 4.53683 10.6944 4.49751 10.7105 4.45453C10.7266 4.41156 10.7339 4.3658 10.732 4.31996C10.7337 4.27605 10.7261 4.23229 10.7098 4.19148C10.6935 4.15068 10.6688 4.11375 10.6374 4.08306C10.604 4.05211 10.5648 4.0281 10.5221 4.01242C10.4793 3.99675 10.4339 3.98973 10.3884 3.99177H10.3884Z" fill="white"/>
<path d="M7.0422 4.5134C6.99724 4.51338 6.95292 4.50277 6.91284 4.4824C6.87275 4.46204 6.83803 4.43252 6.81151 4.39622C6.78498 4.35992 6.76738 4.31787 6.76016 4.2735C6.75293 4.22912 6.75627 4.18367 6.76991 4.14083C6.81835 3.9833 6.90485 3.84013 7.02177 3.72398C7.21639 3.53216 7.46619 3.43625 7.77116 3.43625C7.94478 3.4327 8.11641 3.4737 8.26968 3.55535C8.41456 3.63558 8.53426 3.75455 8.61538 3.89894C8.69849 4.03679 8.74324 4.19435 8.74502 4.3553C8.74502 4.53942 8.69264 4.73757 8.58788 4.94974C8.48315 5.16195 8.29159 5.41279 8.01321 5.70227L7.74782 5.982C7.74088 5.98931 7.73624 5.9985 7.73447 6.00843C7.73269 6.01835 7.73387 6.02858 7.73785 6.03784C7.74183 6.04711 7.74844 6.055 7.75686 6.06054C7.76528 6.06609 7.77514 6.06905 7.78523 6.06905H8.49735C8.56975 6.06905 8.63918 6.09781 8.69038 6.149C8.74157 6.20019 8.77033 6.26963 8.77033 6.34202C8.77033 6.41442 8.74157 6.48385 8.69038 6.53505C8.63918 6.58624 8.56975 6.615 8.49735 6.615H6.82286C6.76967 6.615 6.71866 6.59387 6.68105 6.55626C6.64344 6.51865 6.62231 6.46764 6.62231 6.41445C6.62231 6.36195 6.6429 6.31153 6.67966 6.27404L7.58141 5.35445C7.81329 5.11979 7.96752 4.93113 8.0441 4.78848C8.12068 4.64587 8.15897 4.51693 8.15899 4.40167C8.16066 4.34676 8.15095 4.29209 8.13045 4.24112C8.10995 4.19015 8.07912 4.14397 8.03989 4.10551C8.00265 4.06865 7.95841 4.03963 7.90977 4.02015C7.80707 3.98008 7.69323 3.97914 7.58989 4.01751C7.48655 4.05589 7.40091 4.1309 7.34927 4.2283C7.33556 4.25493 7.3241 4.28267 7.315 4.31121C7.29686 4.36949 7.26066 4.4205 7.21162 4.45684C7.16258 4.49319 7.10325 4.513 7.0422 4.5134V4.5134Z" fill="white"/>
<path d="M15.1526 1.10156H2.92601C2.68642 1.10156 2.44918 1.14875 2.22782 1.24044C2.00647 1.33213 1.80535 1.46651 1.63593 1.63593C1.46652 1.80534 1.33213 2.00647 1.24044 2.22782C1.14875 2.44917 1.10156 2.68642 1.10156 2.92601V15.1526C1.10156 15.6365 1.29378 16.1005 1.63593 16.4427C1.97808 16.7848 2.44214 16.977 2.92601 16.977H15.1526C15.6364 16.977 16.1005 16.7848 16.4427 16.4427C16.7848 16.1005 16.977 15.6365 16.977 15.1526V2.92601C16.977 2.68642 16.9298 2.44917 16.8381 2.22782C16.7465 2.00647 16.6121 1.80534 16.4427 1.63593C16.2732 1.46651 16.0721 1.33213 15.8508 1.24044C15.6294 1.14875 15.3922 1.10156 15.1526 1.10156V1.10156ZM15.7938 14.504C15.7938 14.8461 15.6579 15.1742 15.416 15.416C15.1742 15.6579 14.8461 15.7938 14.504 15.7938H3.57459C3.23251 15.7938 2.90445 15.6579 2.66256 15.416C2.42068 15.1742 2.28479 14.8461 2.28479 14.504V3.57459C2.28479 3.23251 2.42068 2.90445 2.66256 2.66256C2.90445 2.42068 3.23251 2.28479 3.57459 2.28479H14.504C14.8461 2.28479 15.1742 2.42068 15.416 2.66256C15.6579 2.90445 15.7938 3.23251 15.7938 3.57459V14.504Z" fill="white"/>
</svg>
