<svg width="16" height="16" viewBox="0 0 16 16" fill="none" xmlns="http://www.w3.org/2000/svg">
<path d="M8.19222 8.30618C8.08394 8.40146 7.94458 8.4539 7.80035 8.45365C7.65612 8.4534 7.51694 8.40047 7.40899 8.30481C7.20239 8.12255 6.9934 8.03141 6.78201 8.0314C6.62177 8.0314 6.49067 8.0743 6.38873 8.16009C6.28678 8.24588 6.2358 8.34258 6.23578 8.45018C6.23699 8.56133 6.27546 8.66885 6.34504 8.75554C6.44407 8.88354 6.74266 9.15837 7.24081 9.58001C7.70689 9.96975 7.98948 10.2155 8.08859 10.3172C8.33615 10.5674 8.51166 10.8066 8.61513 11.0348C8.72002 11.2702 8.77293 11.5253 8.77027 11.783C8.77027 12.3094 8.5883 12.7441 8.22436 13.0873C7.86045 13.4305 7.38592 13.6021 6.80076 13.602C6.34368 13.602 5.94555 13.4901 5.60639 13.2661C5.41535 13.1374 5.24592 12.9792 5.10437 12.7975C5.04988 12.7294 5.01055 12.6505 4.98899 12.5661C4.96744 12.4816 4.96416 12.3935 4.97938 12.3077C4.9946 12.2218 5.02797 12.1402 5.07725 12.0683C5.12654 11.9964 5.19061 11.9359 5.26517 11.8907C5.38913 11.8154 5.53588 11.7868 5.67903 11.8101C5.82218 11.8333 5.95234 11.9069 6.04611 12.0175C6.28347 12.3003 6.54406 12.4417 6.82788 12.4417C7.03754 12.4417 7.21376 12.3806 7.35654 12.2585C7.49926 12.1363 7.57063 11.9953 7.57063 11.8353C7.57063 11.6899 7.51674 11.5445 7.40895 11.3991C7.30112 11.2537 7.06369 11.0312 6.69667 10.7317C5.99748 10.1617 5.54592 9.72183 5.34199 9.41206C5.13805 9.10234 5.0361 8.79335 5.03615 8.48508C5.03615 8.04013 5.20576 7.65843 5.54497 7.33998C5.88414 7.02153 6.30269 6.86231 6.80063 6.86231C7.11907 6.86185 7.43294 6.93817 7.71563 7.08478C7.88736 7.17635 8.04721 7.28866 8.19156 7.41918C8.25457 7.47461 8.30505 7.5428 8.33965 7.61925C8.37425 7.69569 8.39218 7.77863 8.39224 7.86253C8.3923 7.94644 8.3745 8.0294 8.34001 8.1059C8.30552 8.18239 8.25514 8.25067 8.19222 8.30618V8.30618Z" fill="white"/>
<path d="M10.2688 6.7403C10.3691 6.73906 10.4686 6.75858 10.561 6.79761C10.6535 6.83665 10.7369 6.89436 10.8059 6.96714C10.8786 7.03881 10.9359 7.12449 10.9744 7.21897C11.0129 7.31345 11.0318 7.41477 11.03 7.51679C11.0317 7.61762 11.0129 7.71775 10.9748 7.81111C10.9367 7.90447 10.88 7.98911 10.8081 8.05989C10.7399 8.13188 10.6576 8.189 10.5663 8.22766C10.475 8.26632 10.3766 8.28569 10.2775 8.28455C10.1763 8.28602 10.0758 8.26643 9.9826 8.227C9.88936 8.18757 9.80534 8.12918 9.73588 8.05553C9.66388 7.98352 9.60699 7.89785 9.56853 7.80356C9.53007 7.70927 9.51083 7.60825 9.51193 7.50642C9.50899 7.31969 9.57598 7.1386 9.69975 6.99873C9.76974 6.91646 9.85703 6.85063 9.95539 6.80596C10.0537 6.76129 10.1607 6.73887 10.2688 6.7403ZM10.2688 8.6946C10.347 8.6946 10.4244 8.71 10.4966 8.73993C10.5689 8.76985 10.6345 8.81371 10.6898 8.86901C10.7451 8.9243 10.789 8.98994 10.8189 9.06218C10.8488 9.13443 10.8642 9.21186 10.8642 9.29005V12.8453C10.8642 12.9235 10.8488 13.0009 10.8189 13.0732C10.789 13.1454 10.7451 13.2111 10.6898 13.2664C10.6345 13.3217 10.5689 13.3655 10.4966 13.3954C10.4244 13.4254 10.347 13.4408 10.2688 13.4408C10.1906 13.4408 10.1131 13.4254 10.0409 13.3954C9.96864 13.3655 9.903 13.3217 9.84771 13.2664C9.79242 13.2111 9.74855 13.1454 9.71863 13.0732C9.68871 13.0009 9.67331 12.9235 9.67331 12.8453V9.29005C9.67331 9.21186 9.68871 9.13443 9.71863 9.06218C9.74855 8.98994 9.79242 8.9243 9.84771 8.86901C9.903 8.81371 9.96864 8.76985 10.0409 8.73993C10.1131 8.71 10.1906 8.6946 10.2688 8.6946Z" fill="white"/>
<path d="M9.34997 2.63232C9.44581 2.63233 9.53773 2.6704 9.6055 2.73817C9.67327 2.80594 9.71134 2.89785 9.71134 2.9937V4.51163H9.71432C9.78248 4.51163 9.84784 4.53871 9.89604 4.5869C9.94423 4.6351 9.97131 4.70047 9.97131 4.76862C9.97131 4.83678 9.94423 4.90215 9.89604 4.95034C9.84784 4.99854 9.78248 5.02561 9.71432 5.02561H9.71134V5.35307C9.71134 5.42518 9.6827 5.49433 9.63171 5.54532C9.58073 5.5963 9.51158 5.62495 9.43947 5.62495C9.36736 5.62495 9.29821 5.5963 9.24723 5.54532C9.19624 5.49433 9.16759 5.42518 9.16759 5.35307V5.11883C9.16759 5.09411 9.15778 5.0704 9.1403 5.05293C9.12282 5.03545 9.09911 5.02563 9.0744 5.02563H8.28741C8.18295 5.02563 8.08277 4.98413 8.00891 4.91027C7.93505 4.83641 7.89355 4.73623 7.89355 4.63177C7.89355 4.55347 7.9169 4.47695 7.9606 4.41197L9.0501 2.79204C9.08316 2.74288 9.1278 2.7026 9.18009 2.67475C9.23238 2.64689 9.29072 2.63233 9.34997 2.63232V2.63232ZM9.16759 4.45925V3.70317C9.1676 3.69198 9.16401 3.68107 9.15736 3.67206C9.15071 3.66305 9.14135 3.65641 9.13065 3.65311C9.11994 3.64981 9.10847 3.65002 9.0979 3.65372C9.08733 3.65742 9.07822 3.66441 9.07192 3.67367L8.5566 4.42974C8.55124 4.43761 8.54812 4.4468 8.54759 4.45631C8.54706 4.46583 8.54913 4.4753 8.55358 4.48373C8.55803 4.49215 8.5647 4.4992 8.57286 4.50412C8.58102 4.50903 8.59037 4.51163 8.5999 4.51163H9.1152C9.1291 4.51163 9.14242 4.50611 9.15225 4.49629C9.16207 4.48647 9.16759 4.47314 9.16759 4.45925V4.45925Z" fill="white"/>
<path d="M6.31422 2.5957H6.83482C6.89484 2.5957 6.95241 2.61955 6.99485 2.66199C7.0373 2.70444 7.06114 2.762 7.06114 2.82203V5.43541C7.06114 5.49543 7.0373 5.553 6.99485 5.59545C6.95241 5.63789 6.89484 5.66173 6.83482 5.66173H6.70803C6.6783 5.66173 6.64887 5.65588 6.62141 5.64451C6.59396 5.63313 6.56901 5.61646 6.54799 5.59544C6.52697 5.57443 6.5103 5.54948 6.49893 5.52202C6.48756 5.49456 6.4817 5.46513 6.4817 5.43541V3.27925C6.4817 3.24334 6.46744 3.20891 6.44205 3.18353C6.41667 3.15814 6.38224 3.14388 6.34633 3.14388H6.25538C6.2151 3.14388 6.17556 3.13313 6.14082 3.11275C6.10609 3.09236 6.07742 3.06308 6.05778 3.02791C6.03814 2.99275 6.02824 2.95299 6.0291 2.91272C6.02997 2.87245 6.04155 2.83315 6.06268 2.79886L6.12152 2.70333C6.14178 2.67043 6.17013 2.64327 6.20386 2.62443C6.23759 2.60559 6.27558 2.5957 6.31422 2.5957V2.5957Z" fill="white"/>
<path d="M13.8965 0.34375H2.1035C1.87241 0.34375 1.64358 0.389266 1.43007 0.477702C1.21657 0.566137 1.02258 0.695759 0.859169 0.859167C0.695761 1.02257 0.566139 1.21657 0.477703 1.43007C0.389267 1.64357 0.34375 1.8724 0.34375 2.1035V13.8965C0.343751 14.3632 0.529153 14.8108 0.85917 15.1408C1.18919 15.4708 1.63679 15.6563 2.1035 15.6562H13.8965C14.3632 15.6563 14.8108 15.4708 15.1408 15.1408C15.4708 14.8108 15.6562 14.3632 15.6562 13.8965V2.1035C15.6563 1.8724 15.6107 1.64357 15.5223 1.43007C15.4339 1.21657 15.3042 1.02257 15.1408 0.859167C14.9774 0.695759 14.7834 0.566137 14.5699 0.477702C14.3564 0.389266 14.1276 0.34375 13.8965 0.34375V0.34375ZM14.515 13.2709C14.515 13.6009 14.3839 13.9173 14.1506 14.1506C13.9173 14.3839 13.6009 14.515 13.2709 14.515H2.72908C2.39914 14.515 2.0827 14.3839 1.8494 14.1506C1.61609 13.9173 1.48502 13.6009 1.48502 13.2709V2.72908C1.48502 2.39914 1.61609 2.0827 1.8494 1.8494C2.0827 1.61609 2.39914 1.48502 2.72908 1.48502H13.2709C13.6009 1.48502 13.9173 1.61609 14.1506 1.8494C14.3839 2.0827 14.515 2.39914 14.515 2.72908V13.2709Z" fill="white"/>
</svg>
