<svg width="11" height="11" viewBox="0 0 11 11" fill="none" xmlns="http://www.w3.org/2000/svg">
<path d="M10.0332 1.63281H0.966797C0.434801 1.63281 0 2.0657 0 2.59961V8.40039C0 8.93449 0.43508 9.36719 0.966797 9.36719H10.0332C10.5652 9.36719 11 8.9343 11 8.40039V2.59961C11 2.06557 10.565 1.63281 10.0332 1.63281ZM9.88475 2.27734C9.57217 2.59095 5.90058 6.27451 5.74973 6.42585C5.62375 6.55222 5.37631 6.5523 5.25027 6.42585L1.11525 2.27734H9.88475ZM0.644531 8.2819V2.7181L3.41741 5.5L0.644531 8.2819ZM1.11525 8.72266L3.87243 5.9565L4.79379 6.88087C5.17135 7.25966 5.8288 7.25951 6.20623 6.88087L7.12759 5.95652L9.88475 8.72266H1.11525ZM10.3555 8.2819L7.58259 5.5L10.3555 2.7181V8.2819Z" fill="white"/>
</svg>
