<svg width="10" height="10" viewBox="0 0 10 10" fill="none" xmlns="http://www.w3.org/2000/svg">
<g clip-path="url(#clip0_172_277)">
<path d="M7.90317 5.48C7.69845 5.26683 7.45151 5.15286 7.1898 5.15286C6.9302 5.15286 6.68115 5.26472 6.46798 5.47788L5.80104 6.14271C5.74617 6.11317 5.6913 6.08573 5.63853 6.05829C5.56255 6.0203 5.49079 5.98442 5.42959 5.94643C4.80486 5.54964 4.23711 5.03255 3.69259 4.3635C3.42877 4.03003 3.25148 3.74933 3.12273 3.4644C3.2958 3.30611 3.4562 3.14148 3.61239 2.98319C3.67148 2.9241 3.73058 2.86289 3.78967 2.80379C4.23289 2.36057 4.23289 1.7865 3.78967 1.34328L3.21349 0.767093C3.14806 0.701666 3.08052 0.634127 3.01721 0.566589C2.89057 0.435734 2.75761 0.300657 2.62042 0.174023C2.41569 -0.0285915 2.17087 -0.13623 1.91338 -0.13623C1.65589 -0.13623 1.40684 -0.0285915 1.19579 0.174023C1.19368 0.176134 1.19368 0.176134 1.19156 0.178244L0.473972 0.90217C0.203819 1.17232 0.0497475 1.50157 0.0159784 1.88358C-0.0346753 2.49987 0.146834 3.07395 0.286131 3.44963C0.628043 4.37195 1.1388 5.22673 1.90072 6.14271C2.82514 7.24654 3.93741 8.11821 5.20798 8.73238C5.69341 8.96243 6.34135 9.2347 7.06528 9.28113C7.1096 9.28324 7.15603 9.28535 7.19824 9.28535C7.68578 9.28535 8.09523 9.11018 8.41604 8.76193C8.41815 8.75771 8.42237 8.7556 8.42448 8.75138C8.53423 8.61841 8.66086 8.49811 8.79383 8.36936C8.88458 8.28283 8.97745 8.19208 9.0682 8.0971C9.27715 7.87971 9.3869 7.62644 9.3869 7.36684C9.3869 7.10513 9.27504 6.85398 9.06187 6.64292L7.90317 5.48ZM8.65875 7.70242C8.65664 7.70242 8.65664 7.70454 8.65875 7.70242C8.57644 7.79107 8.49202 7.87127 8.40126 7.95991C8.26408 8.09077 8.12478 8.22796 7.99393 8.38203C7.78076 8.60997 7.5296 8.71761 7.20035 8.71761C7.16869 8.71761 7.13492 8.71761 7.10327 8.7155C6.47643 8.6754 5.89391 8.43057 5.45702 8.22163C4.26244 7.64333 3.21349 6.82232 2.34182 5.78181C1.62212 4.91436 1.14091 4.11235 0.822215 3.25123C0.625933 2.7257 0.554173 2.31625 0.585832 1.93002C0.606937 1.68308 0.701913 1.47836 0.87709 1.30318L1.59679 0.583474C1.70021 0.486387 1.80996 0.433623 1.9176 0.433623C2.05057 0.433623 2.1582 0.513825 2.22574 0.581363C2.22785 0.583474 2.22996 0.585584 2.23207 0.587695C2.36082 0.707997 2.48323 0.832521 2.61198 0.965487C2.6774 1.03303 2.74494 1.10056 2.81248 1.17021L3.38867 1.7464C3.61239 1.97012 3.61239 2.17695 3.38867 2.40067C3.32746 2.46188 3.26836 2.52309 3.20716 2.58218C3.02987 2.76369 2.86102 2.93254 2.6774 3.09716C2.67318 3.10138 2.66896 3.10349 2.66685 3.10771C2.48534 3.28922 2.51911 3.46651 2.5571 3.58681C2.55921 3.59315 2.56132 3.59948 2.56343 3.60581C2.71328 3.96883 2.92434 4.31074 3.24515 4.71808L3.24726 4.72019C3.82977 5.43778 4.44395 5.99708 5.12144 6.42553C5.20798 6.4804 5.29662 6.52473 5.38104 6.56694C5.45702 6.60493 5.52878 6.64081 5.58999 6.6788C5.59843 6.68302 5.60687 6.68935 5.61531 6.69357C5.68707 6.72945 5.75461 6.74634 5.82426 6.74634C5.99944 6.74634 6.10919 6.63659 6.14507 6.60071L6.86688 5.87889C6.93864 5.80713 7.05261 5.7206 7.18558 5.7206C7.31643 5.7206 7.42407 5.80291 7.4895 5.87467C7.49161 5.87678 7.49161 5.87678 7.49372 5.87889L8.65664 7.04182C8.87403 7.25709 8.87403 7.4787 8.65875 7.70242Z" fill="white"/>
<path d="M5.40427 1.66435C5.95724 1.75721 6.45955 2.01892 6.86056 2.41993C7.26157 2.82094 7.52117 3.32325 7.61615 3.87622C7.63936 4.01552 7.75966 4.11261 7.89685 4.11261C7.91374 4.11261 7.92851 4.1105 7.94539 4.10838C8.10158 4.08306 8.20499 3.93532 8.17967 3.77914C8.0657 3.11009 7.74911 2.50013 7.26579 2.01681C6.78247 1.53349 6.17252 1.21691 5.50347 1.10294C5.34728 1.07761 5.20166 1.18103 5.17422 1.3351C5.14678 1.48917 5.24809 1.63902 5.40427 1.66435Z" fill="white"/>
<path d="M9.9884 3.69686C9.80056 2.59514 9.28136 1.59262 8.48357 0.794824C7.68577 -0.00297093 6.68325 -0.522171 5.58153 -0.710012C5.42746 -0.737449 5.28183 -0.631921 5.25439 -0.477849C5.22907 -0.321667 5.33248 -0.176038 5.48867 -0.1486C6.47219 0.0181348 7.36918 0.484571 8.08256 1.19583C8.79593 1.9092 9.26026 2.8062 9.42699 3.78972C9.45021 3.92902 9.57051 4.02611 9.7077 4.02611C9.72458 4.02611 9.73936 4.024 9.75624 4.02188C9.91031 3.99867 10.0158 3.85093 9.9884 3.69686Z" fill="white"/>
</g>
<defs>
<clipPath id="clip0_172_277">
<rect width="10" height="10" fill="white"/>
</clipPath>
</defs>
</svg>
