<svg width="38" height="38" viewBox="0 0 38 38" fill="none" xmlns="http://www.w3.org/2000/svg">
<path d="M19 0.0649414L0 10.8657V37.9354H38V10.8657L19 0.0649414ZM30.1328 27.5447H28.2773V19.3807H17.8867V22.5721H10.4648V27.5447H7.86719V16.6346H30.1328V27.5447ZM20.1133 27.5447V21.6072H26.0508V27.5447H20.1133ZM12.6914 27.5447V24.7986H17.8867V27.5447H12.6914ZM7.87491 35.7088V29.7713H13.8047V35.7088H7.87491ZM16.039 35.7088V29.7713H21.9611V35.7088H16.039ZM24.1953 35.7088V29.7713H30.1251V35.7088H24.1953ZM35.7734 35.7088H32.3594V14.408H5.64062V35.7088H2.22656V12.1612L19 2.62608L35.7734 12.1613V35.7088Z" fill="white"/>
<path d="M15.3663 9.95508H22.6337V12.1816H15.3663V9.95508Z" fill="white"/>
</svg>
