<svg width="35" height="35" viewBox="0 0 35 35" fill="none" xmlns="http://www.w3.org/2000/svg">
<g filter="url(#filter0_i_137_254)">
<circle cx="17.5" cy="17.5" r="17.5" fill="url(#paint0_linear_137_254)"/>
</g>
<path d="M14.8669 20.2195L14.5774 24.4075C14.9915 24.4075 15.1709 24.2245 15.386 24.0047L17.3279 22.096L21.3515 25.1267C22.0894 25.5497 22.6093 25.327 22.8084 24.4285L25.4495 11.6995L25.4502 11.6988C25.6843 10.5768 25.0557 10.1381 24.3368 10.4133L8.81244 16.5265C7.75294 16.9495 7.76898 17.557 8.63233 17.8323L12.6013 19.102L21.8204 13.1688C22.2542 12.8733 22.6487 13.0368 22.3242 13.3323L14.8669 20.2195Z" fill="white"/>
<defs>
<filter id="filter0_i_137_254" x="0" y="0" width="35" height="39" filterUnits="userSpaceOnUse" color-interpolation-filters="sRGB">
<feFlood flood-opacity="0" result="BackgroundImageFix"/>
<feBlend mode="normal" in="SourceGraphic" in2="BackgroundImageFix" result="shape"/>
<feColorMatrix in="SourceAlpha" type="matrix" values="0 0 0 0 0 0 0 0 0 0 0 0 0 0 0 0 0 0 127 0" result="hardAlpha"/>
<feOffset dy="4"/>
<feGaussianBlur stdDeviation="2"/>
<feComposite in2="hardAlpha" operator="arithmetic" k2="-1" k3="1"/>
<feColorMatrix type="matrix" values="0 0 0 0 1 0 0 0 0 1 0 0 0 0 1 0 0 0 0.25 0"/>
<feBlend mode="normal" in2="shape" result="effect1_innerShadow_137_254"/>
</filter>
<linearGradient id="paint0_linear_137_254" x1="17.5" y1="0" x2="17.5" y2="35" gradientUnits="userSpaceOnUse">
<stop stop-color="#5CC2FC"/>
<stop offset="1" stop-color="#3191EA"/>
</linearGradient>
</defs>
</svg>
