<svg width="35" height="35" viewBox="0 0 35 35" fill="none" xmlns="http://www.w3.org/2000/svg">
<g filter="url(#filter0_i_137_244)">
<circle cx="17.5" cy="17.5" r="17.5" fill="url(#paint0_linear_137_244)"/>
</g>
<g clip-path="url(#clip0_137_244)">
<path d="M22.2553 19.4387L21.2483 18.4317C20.9736 18.157 20.5939 18.0194 20.2073 18.0541C19.8204 18.0888 19.4715 18.2918 19.2501 18.6109L18.8994 19.1163C18.4223 19.0314 17.4995 18.7909 16.8545 18.1458C16.2092 17.5005 15.9687 16.5772 15.8839 16.1009L16.3895 15.7502C16.7086 15.5287 16.9116 15.1797 16.9462 14.7928C16.9809 14.4059 16.8432 14.0265 16.5686 13.7519L15.5617 12.745C15.157 12.3404 14.5471 12.2438 14.0439 12.5046C13.1616 12.9617 12.582 13.8185 12.4118 14.9173C12.1345 16.7074 12.962 18.8193 14.5715 20.4288C15.9752 21.8325 17.7609 22.6414 19.3821 22.6414C19.6199 22.6414 19.8541 22.624 20.083 22.5885C21.1818 22.4183 22.0386 21.8387 22.4957 20.9564C22.4957 20.9564 22.4957 20.9564 22.4957 20.9564C22.7564 20.4531 22.6598 19.8432 22.2553 19.4387ZM21.4712 20.4256C21.1079 21.1267 20.4197 21.3687 19.9064 21.4482C18.4949 21.6668 16.7211 20.9465 15.3874 19.6128C14.0538 18.2792 13.3334 16.5054 13.552 15.0939C13.6315 14.5805 13.8735 13.8924 14.5747 13.5291C14.5937 13.5193 14.6147 13.5145 14.636 13.5145C14.6752 13.5145 14.7154 13.5306 14.7457 13.5609L15.7526 14.5678C15.7944 14.6097 15.7998 14.6573 15.7969 14.6899C15.7939 14.7224 15.7803 14.7683 15.7316 14.8021L14.9362 15.354C14.7699 15.4694 14.6762 15.6636 14.6894 15.8656C14.6944 15.9419 14.8257 17.7487 16.0386 18.9616C17.2514 20.1745 19.0582 20.3058 19.1345 20.3107C19.3364 20.3237 19.5308 20.2303 19.6462 20.0639L20.1981 19.2686C20.2318 19.22 20.2777 19.2063 20.3103 19.2033C20.3429 19.2003 20.3904 19.2057 20.4324 19.2476L21.4393 20.2545C21.4861 20.3012 21.4992 20.3716 21.4712 20.4256Z" fill="white"/>
<path d="M24.2174 10.7826C22.423 8.98819 20.0373 8 17.4996 8C14.962 8 12.5763 8.98819 10.7819 10.7826C9.2568 12.3077 8.28861 14.3261 8.05557 16.466C7.83525 18.489 8.27492 20.5482 9.29498 22.2937L8.30498 25.9884C8.25162 26.1875 8.30854 26.3999 8.45434 26.5457C8.60007 26.6914 8.8126 26.7484 9.01158 26.695L12.7063 25.7051C14.1574 26.5531 15.8254 27 17.5091 27C17.8506 27 18.1928 26.9816 18.534 26.9444C20.6739 26.7114 22.6924 25.7432 24.2174 24.2181C26.0118 22.4237 27 20.038 27 17.5004C27 14.9628 26.0118 12.577 24.2174 10.7826ZM23.4015 23.4022C20.6431 26.1605 16.4064 26.6507 13.0985 24.5943C13.0062 24.5369 12.9006 24.5073 12.7939 24.5073C12.7439 24.5073 12.6938 24.5138 12.6446 24.527L9.67817 25.3218L10.4731 22.3555C10.5143 22.2014 10.4899 22.037 10.4057 21.9015C8.34925 18.5936 8.83946 14.3568 11.5978 11.5985C14.8521 8.34423 20.1472 8.34423 23.4015 11.5985C26.6557 14.8528 26.6557 20.1479 23.4015 23.4022Z" fill="white"/>
</g>
<defs>
<filter id="filter0_i_137_244" x="0" y="0" width="35" height="39" filterUnits="userSpaceOnUse" color-interpolation-filters="sRGB">
<feFlood flood-opacity="0" result="BackgroundImageFix"/>
<feBlend mode="normal" in="SourceGraphic" in2="BackgroundImageFix" result="shape"/>
<feColorMatrix in="SourceAlpha" type="matrix" values="0 0 0 0 0 0 0 0 0 0 0 0 0 0 0 0 0 0 127 0" result="hardAlpha"/>
<feOffset dy="4"/>
<feGaussianBlur stdDeviation="2"/>
<feComposite in2="hardAlpha" operator="arithmetic" k2="-1" k3="1"/>
<feColorMatrix type="matrix" values="0 0 0 0 1 0 0 0 0 1 0 0 0 0 1 0 0 0 0.25 0"/>
<feBlend mode="normal" in2="shape" result="effect1_innerShadow_137_244"/>
</filter>
<linearGradient id="paint0_linear_137_244" x1="17.5" y1="0" x2="17.5" y2="35" gradientUnits="userSpaceOnUse">
<stop stop-color="#62FE71"/>
<stop offset="1" stop-color="#2BE73D"/>
</linearGradient>
<clipPath id="clip0_137_244">
<rect width="19" height="19" fill="white" transform="translate(8 8)"/>
</clipPath>
</defs>
</svg>
